<svg width="1024" height="1024" viewBox="0 0 1024 1024" fill="none" xmlns="http://www.w3.org/2000/svg">
<path fill-rule="evenodd" clip-rule="evenodd" d="M345.856 108.929C349.397 101.843 354.841 95.8821 361.578 91.7149C368.314 87.5477 376.078 85.3382 384 85.334H640C647.922 85.3382 655.686 87.5477 662.422 91.7149C669.159 95.8821 674.603 101.843 678.144 108.929L751.701 256.001H853.333C864.649 256.001 875.502 260.496 883.503 268.497C891.505 276.499 896 287.351 896 298.667C896 309.983 891.505 320.836 883.503 328.837C875.502 336.839 864.649 341.334 853.333 341.334H810.667V810.667C810.667 844.615 797.181 877.172 773.176 901.177C749.172 925.182 716.614 938.667 682.667 938.667H341.333C307.386 938.667 274.828 925.182 250.824 901.177C226.819 877.172 213.333 844.615 213.333 810.667V341.334H170.667C159.351 341.334 148.498 336.839 140.497 328.837C132.495 320.836 128 309.983 128 298.667C128 287.351 132.495 276.499 140.497 268.497C148.498 260.496 159.351 256.001 170.667 256.001H272.299L345.856 108.929ZM613.632 170.667L656.299 256.001H367.701L410.368 170.667H613.632ZM469.333 469.334C469.333 458.018 464.838 447.166 456.837 439.164C448.835 431.163 437.983 426.667 426.667 426.667C415.351 426.667 404.498 431.163 396.497 439.164C388.495 447.166 384 458.018 384 469.334V725.334C384 736.65 388.495 747.502 396.497 755.504C404.498 763.505 415.351 768.001 426.667 768.001C437.983 768.001 448.835 763.505 456.837 755.504C464.838 747.502 469.333 736.65 469.333 725.334V469.334ZM640 469.334C640 458.018 635.505 447.166 627.503 439.164C619.502 431.163 608.649 426.667 597.333 426.667C586.017 426.667 575.165 431.163 567.163 439.164C559.162 447.166 554.667 458.018 554.667 469.334V725.334C554.667 736.65 559.162 747.502 567.163 755.504C575.165 763.505 586.017 768.001 597.333 768.001C608.649 768.001 619.502 763.505 627.503 755.504C635.505 747.502 640 736.65 640 725.334V469.334Z" fill="#006041"/>
</svg>
